<?xml version="1.0" encoding="UTF-8"?>
<!DOCTYPE svg PUBLIC "-//W3C//DTD SVG 1.1//EN" "http://www.w3.org/Graphics/SVG/1.1/DTD/svg11.dtd">
<svg xmlns="http://www.w3.org/2000/svg" version="1.1" width="71px" height="69px" style="shape-rendering:geometricPrecision; text-rendering:geometricPrecision; image-rendering:optimizeQuality; fill-rule:evenodd; clip-rule:evenodd" xmlns:xlink="http://www.w3.org/1999/xlink">
<g><path style="opacity:0.944" fill="#4785e0" d="M 32.5,5.5 C 35.8066,5.06317 38.8066,5.72984 41.5,7.5C 49.0779,22.9895 56.9112,38.3229 65,53.5C 66.8333,61 64,63.8333 56.5,62C 47.6171,45.7351 39.1171,29.2351 31,12.5C 30.3911,9.93481 30.8911,7.60147 32.5,5.5 Z"/></g>
<g><path style="opacity:0.954" fill="#db9a49" d="M 21.5,23.5 C 24.6516,22.9586 27.1516,23.9586 29,26.5C 33.6667,35.8333 38.3333,45.1667 43,54.5C 44.3236,61.5051 41.4902,64.0051 34.5,62C 28.3,51.2664 22.6333,40.2664 17.5,29C 18.0074,26.4547 19.3407,24.6214 21.5,23.5 Z"/></g>
<g><path style="opacity:0.931" fill="#cf4043" d="M 7.5,42.5 C 10.1194,42.2317 12.6194,42.565 15,43.5C 17.4594,48.0824 19.6261,52.7491 21.5,57.5C 20.3567,62.2528 17.3567,63.7528 12.5,62C 6.3831,56.3697 4.71643,49.8697 7.5,42.5 Z"/></g>
</svg>
